<svg width="512" height="512" viewBox="0 0 512 512" fill="none" xmlns="http://www.w3.org/2000/svg" xmlns:xlink="http://www.w3.org/1999/xlink" class=""><rect id="r4" width="512" height="512" x="0" y="0" rx="128" fill="#11111B" stroke="#FFFFFF" stroke-width="0" stroke-opacity="100%" paint-order="stroke"></rect><rect width="512" height="512" x="0" y="0" fill="url(#r6)" rx="128" style="mix-blend-mode: overlay;"></rect><clipPath id="clip"><use xlink:href="#r4"></use></clipPath><defs><linearGradient id="r5" gradientUnits="userSpaceOnUse" gradientTransform="rotate(110)" style="transform-origin: center center;"><stop stop-color="#11111B"></stop><stop offset="1" stop-color="#1E1E2E"></stop></linearGradient><radialGradient id="r6" cx="0" cy="0" r="1" gradientUnits="userSpaceOnUse" gradientTransform="translate(256) rotate(90) scale(512)"><stop stop-color="white"></stop><stop offset="1" stop-color="white" stop-opacity="0"></stop></radialGradient></defs><svg viewBox="0 0 16 16" fill="none" xmlns="http://www.w3.org/2000/svg" width="350" height="350" x="81" y="81" alignment-baseline="middle" style="color: rgb(205, 214, 244);"><path d="M1.75 9v3c0 1.243 1.903 2.25 4.25 2.25s4.25-1.007 4.25-2.25V9m-8.5 0c0 1.243 1.903 2.25 4.25 2.25s4.25-1.007 4.25-2.25m-8.5 0c0-1.243 1.903-2.25 4.25-2.25S10.25 7.757 10.25 9m-4.5-5c0-1.243 1.903-2.25 4.25-2.25S14.25 2.757 14.25 4m0 0c0 .86-.911 1.607-2.25 1.986M14.25 4v3c0 .623-.728 1.343-1.5 1.75" stroke="currentColor" stroke-width="1.5" stroke-linecap="round" stroke-linejoin="round"></path></svg></svg>